<mxfile host="app.diagrams.net" modified="2024-03-18T10:47:12.768Z" agent="Mozilla/5.0 (Windows NT 10.0; Win64; x64) AppleWebKit/537.36 (KHTML, like Gecko) Chrome/122.0.0.0 Safari/537.36" etag="gBKj3xCgoj3mtGTDnPZ6" version="24.0.7" type="github">
  <diagram name="第 1 页" id="MFjEPJ0bSbvlaQTOWef_">
    <mxGraphModel dx="1152" dy="614" grid="1" gridSize="10" guides="1" tooltips="1" connect="1" arrows="1" fold="1" page="1" pageScale="1" pageWidth="827" pageHeight="1169" math="0" shadow="0">
      <root>
        <mxCell id="0" />
        <mxCell id="1" parent="0" />
        <mxCell id="QHPDZIuiDeHLjxnEAGQI-9" style="edgeStyle=orthogonalEdgeStyle;rounded=0;orthogonalLoop=1;jettySize=auto;html=1;entryX=0;entryY=0.5;entryDx=0;entryDy=0;fontStyle=1" parent="1" source="QHPDZIuiDeHLjxnEAGQI-2" target="QHPDZIuiDeHLjxnEAGQI-6" edge="1">
          <mxGeometry relative="1" as="geometry">
            <Array as="points">
              <mxPoint x="170" y="340" />
              <mxPoint x="170" y="310" />
            </Array>
          </mxGeometry>
        </mxCell>
        <mxCell id="QHPDZIuiDeHLjxnEAGQI-10" style="edgeStyle=orthogonalEdgeStyle;rounded=0;orthogonalLoop=1;jettySize=auto;html=1;entryX=0;entryY=0.5;entryDx=0;entryDy=0;fontStyle=1" parent="1" source="QHPDZIuiDeHLjxnEAGQI-2" target="QHPDZIuiDeHLjxnEAGQI-7" edge="1">
          <mxGeometry relative="1" as="geometry">
            <Array as="points">
              <mxPoint x="170" y="340" />
              <mxPoint x="170" y="370" />
            </Array>
          </mxGeometry>
        </mxCell>
        <mxCell id="QHPDZIuiDeHLjxnEAGQI-2" value="爱丽丝梦游仙境综合症" style="rounded=1;whiteSpace=wrap;html=1;fontStyle=1" parent="1" vertex="1">
          <mxGeometry x="70" y="320" width="70" height="40" as="geometry" />
        </mxCell>
        <mxCell id="QHPDZIuiDeHLjxnEAGQI-6" value="爱丽丝梦游仙境&lt;br&gt;（文学作品）" style="rounded=1;whiteSpace=wrap;html=1;fontStyle=1" parent="1" vertex="1">
          <mxGeometry x="200" y="290" width="130" height="40" as="geometry" />
        </mxCell>
        <mxCell id="QHPDZIuiDeHLjxnEAGQI-7" value="爱丽丝梦游仙境综合症&lt;br&gt;（病症）" style="rounded=1;whiteSpace=wrap;html=1;fontStyle=1" parent="1" vertex="1">
          <mxGeometry x="200" y="350" width="130" height="40" as="geometry" />
        </mxCell>
        <mxCell id="tU1nnmIKC68T0iaGNvnG-17" style="edgeStyle=orthogonalEdgeStyle;rounded=0;orthogonalLoop=1;jettySize=auto;html=1;curved=1;" parent="1" source="QHPDZIuiDeHLjxnEAGQI-11" target="tU1nnmIKC68T0iaGNvnG-2" edge="1">
          <mxGeometry relative="1" as="geometry" />
        </mxCell>
        <mxCell id="tU1nnmIKC68T0iaGNvnG-18" style="edgeStyle=orthogonalEdgeStyle;rounded=0;orthogonalLoop=1;jettySize=auto;html=1;curved=1;exitX=0.5;exitY=1;exitDx=0;exitDy=0;" parent="1" source="QHPDZIuiDeHLjxnEAGQI-11" target="tU1nnmIKC68T0iaGNvnG-5" edge="1">
          <mxGeometry relative="1" as="geometry" />
        </mxCell>
        <mxCell id="QHPDZIuiDeHLjxnEAGQI-11" value="奶粉" style="rounded=1;whiteSpace=wrap;html=1;fontStyle=1" parent="1" vertex="1">
          <mxGeometry x="470" y="280" width="160" height="50" as="geometry" />
        </mxCell>
        <mxCell id="QHPDZIuiDeHLjxnEAGQI-12" value="ID：101" style="rounded=0;whiteSpace=wrap;html=1;fillColor=#dae8fc;strokeColor=#6c8ebf;fontStyle=1" parent="1" vertex="1">
          <mxGeometry x="480" y="270" width="50" height="20" as="geometry" />
        </mxCell>
        <mxCell id="tU1nnmIKC68T0iaGNvnG-1" value="Type：食物" style="rounded=0;whiteSpace=wrap;html=1;fillColor=#dae8fc;strokeColor=#6c8ebf;fontStyle=1" parent="1" vertex="1">
          <mxGeometry x="540" y="270" width="80" height="20" as="geometry" />
        </mxCell>
        <mxCell id="tU1nnmIKC68T0iaGNvnG-15" style="edgeStyle=orthogonalEdgeStyle;rounded=0;orthogonalLoop=1;jettySize=auto;html=1;entryX=0;entryY=0.25;entryDx=0;entryDy=0;curved=1;" parent="1" source="tU1nnmIKC68T0iaGNvnG-2" target="tU1nnmIKC68T0iaGNvnG-12" edge="1">
          <mxGeometry relative="1" as="geometry" />
        </mxCell>
        <mxCell id="tU1nnmIKC68T0iaGNvnG-2" value="GB 5413.5-2010添加剂" style="rounded=1;whiteSpace=wrap;html=1;fontStyle=1" parent="1" vertex="1">
          <mxGeometry x="414" y="400" width="160" height="50" as="geometry" />
        </mxCell>
        <mxCell id="tU1nnmIKC68T0iaGNvnG-3" value="ID：201" style="rounded=0;whiteSpace=wrap;html=1;fillColor=#dae8fc;strokeColor=#6c8ebf;fontStyle=1" parent="1" vertex="1">
          <mxGeometry x="424" y="390" width="50" height="20" as="geometry" />
        </mxCell>
        <mxCell id="tU1nnmIKC68T0iaGNvnG-4" value="Type：标准" style="rounded=0;whiteSpace=wrap;html=1;fillColor=#dae8fc;strokeColor=#6c8ebf;fontStyle=1" parent="1" vertex="1">
          <mxGeometry x="484" y="390" width="80" height="20" as="geometry" />
        </mxCell>
        <mxCell id="tU1nnmIKC68T0iaGNvnG-16" style="edgeStyle=orthogonalEdgeStyle;rounded=0;orthogonalLoop=1;jettySize=auto;html=1;entryX=1;entryY=0.5;entryDx=0;entryDy=0;curved=1;" parent="1" source="tU1nnmIKC68T0iaGNvnG-5" target="tU1nnmIKC68T0iaGNvnG-12" edge="1">
          <mxGeometry relative="1" as="geometry" />
        </mxCell>
        <mxCell id="tU1nnmIKC68T0iaGNvnG-5" value="GB/T 5413.3-1997" style="rounded=1;whiteSpace=wrap;html=1;fontStyle=1" parent="1" vertex="1">
          <mxGeometry x="660" y="400" width="160" height="50" as="geometry" />
        </mxCell>
        <mxCell id="tU1nnmIKC68T0iaGNvnG-6" value="ID：201" style="rounded=0;whiteSpace=wrap;html=1;fillColor=#dae8fc;strokeColor=#6c8ebf;fontStyle=1" parent="1" vertex="1">
          <mxGeometry x="670" y="390" width="50" height="20" as="geometry" />
        </mxCell>
        <mxCell id="tU1nnmIKC68T0iaGNvnG-7" value="Name：标准" style="rounded=0;whiteSpace=wrap;html=1;fillColor=#dae8fc;strokeColor=#6c8ebf;fontStyle=1" parent="1" vertex="1">
          <mxGeometry x="730" y="390" width="80" height="20" as="geometry" />
        </mxCell>
        <mxCell id="tU1nnmIKC68T0iaGNvnG-8" value="status：作废" style="rounded=0;whiteSpace=wrap;html=1;fillColor=#dae8fc;strokeColor=#6c8ebf;fontStyle=1" parent="1" vertex="1">
          <mxGeometry x="670" y="440" width="80" height="20" as="geometry" />
        </mxCell>
        <mxCell id="tU1nnmIKC68T0iaGNvnG-9" value="status：现行" style="rounded=0;whiteSpace=wrap;html=1;fillColor=#dae8fc;strokeColor=#6c8ebf;fontStyle=1" parent="1" vertex="1">
          <mxGeometry x="424" y="440" width="80" height="20" as="geometry" />
        </mxCell>
        <mxCell id="tU1nnmIKC68T0iaGNvnG-11" value="limit：0.4%" style="rounded=0;whiteSpace=wrap;html=1;fillColor=#dae8fc;strokeColor=#6c8ebf;fontStyle=1" parent="1" vertex="1">
          <mxGeometry x="690" y="510" width="80" height="20" as="geometry" />
        </mxCell>
        <mxCell id="tU1nnmIKC68T0iaGNvnG-12" value="砂糖" style="rounded=1;whiteSpace=wrap;html=1;fontStyle=1" parent="1" vertex="1">
          <mxGeometry x="510" y="580" width="160" height="50" as="geometry" />
        </mxCell>
        <mxCell id="tU1nnmIKC68T0iaGNvnG-13" value="ID：101" style="rounded=0;whiteSpace=wrap;html=1;fillColor=#dae8fc;strokeColor=#6c8ebf;fontStyle=1" parent="1" vertex="1">
          <mxGeometry x="520" y="570" width="50" height="20" as="geometry" />
        </mxCell>
        <mxCell id="tU1nnmIKC68T0iaGNvnG-14" value="Type：添加剂" style="rounded=0;whiteSpace=wrap;html=1;fillColor=#dae8fc;strokeColor=#6c8ebf;fontStyle=1" parent="1" vertex="1">
          <mxGeometry x="580" y="570" width="80" height="20" as="geometry" />
        </mxCell>
        <mxCell id="tU1nnmIKC68T0iaGNvnG-10" value="limit：0.3%" style="rounded=0;whiteSpace=wrap;html=1;fillColor=#dae8fc;strokeColor=#6c8ebf;fontStyle=1" parent="1" vertex="1">
          <mxGeometry x="440" y="510" width="80" height="20" as="geometry" />
        </mxCell>
        <mxCell id="O0BUdd3b0Jgh92Y_Tm-i-1" style="rounded=0;orthogonalLoop=1;jettySize=auto;html=1;" edge="1" parent="1" source="O0BUdd3b0Jgh92Y_Tm-i-3" target="O0BUdd3b0Jgh92Y_Tm-i-7">
          <mxGeometry relative="1" as="geometry" />
        </mxCell>
        <mxCell id="O0BUdd3b0Jgh92Y_Tm-i-2" style="rounded=0;orthogonalLoop=1;jettySize=auto;html=1;exitX=0.5;exitY=1;exitDx=0;exitDy=0;" edge="1" parent="1" source="O0BUdd3b0Jgh92Y_Tm-i-3" target="O0BUdd3b0Jgh92Y_Tm-i-11">
          <mxGeometry relative="1" as="geometry" />
        </mxCell>
        <mxCell id="O0BUdd3b0Jgh92Y_Tm-i-3" value="奶粉" style="rounded=1;whiteSpace=wrap;html=1;fontStyle=1" vertex="1" parent="1">
          <mxGeometry x="1126" y="690" width="160" height="50" as="geometry" />
        </mxCell>
        <mxCell id="O0BUdd3b0Jgh92Y_Tm-i-4" value="ID：1751" style="rounded=0;whiteSpace=wrap;html=1;fillColor=#dae8fc;strokeColor=#6c8ebf;fontStyle=1" vertex="1" parent="1">
          <mxGeometry x="1136" y="680" width="54" height="20" as="geometry" />
        </mxCell>
        <mxCell id="O0BUdd3b0Jgh92Y_Tm-i-5" value="Type：食物" style="rounded=0;whiteSpace=wrap;html=1;fillColor=#dae8fc;strokeColor=#6c8ebf;fontStyle=1" vertex="1" parent="1">
          <mxGeometry x="1196" y="680" width="80" height="20" as="geometry" />
        </mxCell>
        <mxCell id="O0BUdd3b0Jgh92Y_Tm-i-6" style="rounded=0;orthogonalLoop=1;jettySize=auto;html=1;entryX=0;entryY=0.25;entryDx=0;entryDy=0;endArrow=none;endFill=0;" edge="1" parent="1" source="O0BUdd3b0Jgh92Y_Tm-i-7" target="O0BUdd3b0Jgh92Y_Tm-i-17">
          <mxGeometry relative="1" as="geometry" />
        </mxCell>
        <mxCell id="O0BUdd3b0Jgh92Y_Tm-i-7" value="GB 5413.5-2010" style="rounded=1;whiteSpace=wrap;html=1;fontStyle=1" vertex="1" parent="1">
          <mxGeometry x="1070" y="810" width="160" height="50" as="geometry" />
        </mxCell>
        <mxCell id="O0BUdd3b0Jgh92Y_Tm-i-8" value="ID：9101" style="rounded=0;whiteSpace=wrap;html=1;fillColor=#dae8fc;strokeColor=#6c8ebf;fontStyle=1" vertex="1" parent="1">
          <mxGeometry x="1080" y="800" width="60" height="20" as="geometry" />
        </mxCell>
        <mxCell id="O0BUdd3b0Jgh92Y_Tm-i-9" value="Type：标准" style="rounded=0;whiteSpace=wrap;html=1;fillColor=#dae8fc;strokeColor=#6c8ebf;fontStyle=1" vertex="1" parent="1">
          <mxGeometry x="1150" y="800" width="70" height="20" as="geometry" />
        </mxCell>
        <mxCell id="O0BUdd3b0Jgh92Y_Tm-i-10" style="rounded=0;orthogonalLoop=1;jettySize=auto;html=1;entryX=1;entryY=0.5;entryDx=0;entryDy=0;endArrow=none;endFill=0;" edge="1" parent="1" source="O0BUdd3b0Jgh92Y_Tm-i-11" target="O0BUdd3b0Jgh92Y_Tm-i-17">
          <mxGeometry relative="1" as="geometry" />
        </mxCell>
        <mxCell id="O0BUdd3b0Jgh92Y_Tm-i-11" value="GB/T 5413.3-1997" style="rounded=1;whiteSpace=wrap;html=1;fontStyle=1" vertex="1" parent="1">
          <mxGeometry x="1316" y="810" width="184" height="50" as="geometry" />
        </mxCell>
        <mxCell id="O0BUdd3b0Jgh92Y_Tm-i-12" value="ID：4201" style="rounded=0;whiteSpace=wrap;html=1;fillColor=#dae8fc;strokeColor=#6c8ebf;fontStyle=1" vertex="1" parent="1">
          <mxGeometry x="1326" y="800" width="74" height="20" as="geometry" />
        </mxCell>
        <mxCell id="O0BUdd3b0Jgh92Y_Tm-i-13" value="Name：标准" style="rounded=0;whiteSpace=wrap;html=1;fillColor=#dae8fc;strokeColor=#6c8ebf;fontStyle=1" vertex="1" parent="1">
          <mxGeometry x="1410" y="800" width="80" height="20" as="geometry" />
        </mxCell>
        <mxCell id="O0BUdd3b0Jgh92Y_Tm-i-14" value="status：作废" style="rounded=0;whiteSpace=wrap;html=1;fillColor=#dae8fc;strokeColor=#6c8ebf;fontStyle=1" vertex="1" parent="1">
          <mxGeometry x="1326" y="850" width="80" height="20" as="geometry" />
        </mxCell>
        <mxCell id="O0BUdd3b0Jgh92Y_Tm-i-15" value="status：现行" style="rounded=0;whiteSpace=wrap;html=1;fillColor=#dae8fc;strokeColor=#6c8ebf;fontStyle=1" vertex="1" parent="1">
          <mxGeometry x="1080" y="850" width="80" height="20" as="geometry" />
        </mxCell>
        <mxCell id="O0BUdd3b0Jgh92Y_Tm-i-16" value="limit：0.4%" style="rounded=0;whiteSpace=wrap;html=1;fillColor=#dae8fc;strokeColor=#6c8ebf;fontStyle=1" vertex="1" parent="1">
          <mxGeometry x="1346" y="920" width="80" height="20" as="geometry" />
        </mxCell>
        <mxCell id="O0BUdd3b0Jgh92Y_Tm-i-17" value="砂糖" style="rounded=1;whiteSpace=wrap;html=1;fontStyle=1" vertex="1" parent="1">
          <mxGeometry x="1166" y="990" width="184" height="50" as="geometry" />
        </mxCell>
        <mxCell id="O0BUdd3b0Jgh92Y_Tm-i-18" value="ID：92" style="rounded=0;whiteSpace=wrap;html=1;fillColor=#dae8fc;strokeColor=#6c8ebf;fontStyle=1" vertex="1" parent="1">
          <mxGeometry x="1181" y="980" width="69" height="20" as="geometry" />
        </mxCell>
        <mxCell id="O0BUdd3b0Jgh92Y_Tm-i-19" value="Type：添加剂" style="rounded=0;whiteSpace=wrap;html=1;fillColor=#dae8fc;strokeColor=#6c8ebf;fontStyle=1" vertex="1" parent="1">
          <mxGeometry x="1260" y="980" width="80" height="20" as="geometry" />
        </mxCell>
        <mxCell id="O0BUdd3b0Jgh92Y_Tm-i-20" value="limit：0.3%" style="rounded=0;whiteSpace=wrap;html=1;fillColor=#dae8fc;strokeColor=#6c8ebf;fontStyle=1" vertex="1" parent="1">
          <mxGeometry x="1096" y="920" width="80" height="20" as="geometry" />
        </mxCell>
      </root>
    </mxGraphModel>
  </diagram>
</mxfile>
